<?xml version="1.0" encoding="UTF-8"?>
<svg xmlns="http://www.w3.org/2000/svg" width="1200" height="800" viewBox="0 0 1200 800">
<rect width="1200" height="800" fill="#f0f0f0"/>
<g stroke="#666" stroke-width="2">
<line x1="600" y1="80" x2="300" y2="156.667"/>
<line x1="600" y1="80" x2="500" y2="156.667"/>
<line x1="600" y1="80" x2="700" y2="156.667"/>
<line x1="600" y1="80" x2="900" y2="156.667"/>
<line x1="700" y1="196.667" x2="350" y2="273.333"/>
<line x1="700" y1="196.667" x2="600" y2="273.333"/>
<line x1="700" y1="196.667" x2="850" y2="273.333"/>
<line x1="850" y1="313.333" x2="433.333" y2="390"/>
<line x1="850" y1="313.333" x2="766.667" y2="390"/>
<line x1="433.333" y1="430" x2="600" y2="506.667"/>
</g>
<rect x="560" y="30" width="80" height="40" rx="5" fill="#d3d3d3" stroke="#333" stroke-width="2"/>
<text x="600" y="55" text-anchor="middle" font-family="Arial" font-size="10">ID:0 LB:12</text>
<text x="600" y="25" text-anchor="middle" font-family="Arial" font-size="8" fill="#333">Asgn:</text>
<rect x="260" y="146.667" width="80" height="40" rx="5" fill="#d3d3d3" stroke="#333" stroke-width="2"/>
<text x="300" y="171.667" text-anchor="middle" font-family="Arial" font-size="10">ID:1 LB:14</text>
<text x="300" y="141.667" text-anchor="middle" font-family="Arial" font-size="8" fill="#333">Asgn:0</text>
<rect x="460" y="146.667" width="80" height="40" rx="5" fill="#d3d3d3" stroke="#333" stroke-width="2"/>
<text x="500" y="171.667" text-anchor="middle" font-family="Arial" font-size="10">ID:2 LB:15</text>
<text x="500" y="141.667" text-anchor="middle" font-family="Arial" font-size="8" fill="#333">Asgn:1</text>
<rect x="660" y="146.667" width="80" height="40" rx="5" fill="#d3d3d3" stroke="#333" stroke-width="2"/>
<text x="700" y="171.667" text-anchor="middle" font-family="Arial" font-size="10">ID:3 LB:13</text>
<text x="700" y="141.667" text-anchor="middle" font-family="Arial" font-size="8" fill="#333">Asgn:2</text>
<rect x="860" y="146.667" width="80" height="40" rx="5" fill="#d3d3d3" stroke="#333" stroke-width="2"/>
<text x="900" y="171.667" text-anchor="middle" font-family="Arial" font-size="10">ID:4 LB:16</text>
<text x="900" y="141.667" text-anchor="middle" font-family="Arial" font-size="8" fill="#333">Asgn:3</text>
<rect x="310" y="263.333" width="80" height="40" rx="5" fill="#d3d3d3" stroke="#333" stroke-width="2"/>
<text x="350" y="288.333" text-anchor="middle" font-family="Arial" font-size="10">ID:5 LB:18</text>
<text x="350" y="258.333" text-anchor="middle" font-family="Arial" font-size="8" fill="#333">Asgn:2,0</text>
<rect x="560" y="263.333" width="80" height="40" rx="5" fill="#d3d3d3" stroke="#333" stroke-width="2"/>
<text x="600" y="288.333" text-anchor="middle" font-family="Arial" font-size="10">ID:6 LB:18</text>
<text x="600" y="258.333" text-anchor="middle" font-family="Arial" font-size="8" fill="#333">Asgn:2,1</text>
<rect x="810" y="263.333" width="80" height="40" rx="5" fill="#d3d3d3" stroke="#333" stroke-width="2"/>
<text x="850" y="288.333" text-anchor="middle" font-family="Arial" font-size="10">ID:7 LB:13</text>
<text x="850" y="258.333" text-anchor="middle" font-family="Arial" font-size="8" fill="#333">Asgn:2,3</text>
<rect x="393.333" y="380" width="80" height="40" rx="5" fill="#d3d3d3" stroke="#333" stroke-width="2"/>
<text x="433.333" y="405" text-anchor="middle" font-family="Arial" font-size="10">ID:8 LB:13</text>
<text x="433.333" y="375" text-anchor="middle" font-family="Arial" font-size="8" fill="#333">Asgn:2,3,0</text>
<rect x="726.667" y="380" width="80" height="40" rx="5" fill="#d3d3d3" stroke="#333" stroke-width="2"/>
<text x="766.667" y="405" text-anchor="middle" font-family="Arial" font-size="10">ID:9 LB:20</text>
<text x="766.667" y="375" text-anchor="middle" font-family="Arial" font-size="8" fill="#333">Asgn:2,3,1</text>
<rect x="560" y="496.667" width="80" height="40" rx="5" fill="#90EE90" stroke="#006400" stroke-width="2"/>
<text x="600" y="521.667" text-anchor="middle" font-family="Arial" font-size="10">ID:10 LB:13</text>
<text x="600" y="491.667" text-anchor="middle" font-family="Arial" font-size="8" fill="#333">Asgn:2,3,0,1</text>
<g font-family="Arial" font-size="12">
<rect x="20" y="20" width="20" height="20" fill="#87CEEB" stroke="#333"/>
<text x="50" y="35">活动节点</text>
<rect x="20" y="50" width="20" height="20" fill="#d3d3d3" stroke="#333"/>
<text x="50" y="65">已处理节点</text>
<rect x="20" y="80" width="20" height="20" fill="#90EE90" stroke="#006400"/>
<text x="50" y="95">最优解</text>
</g>
</svg>
